<svg width="20" height="20" fill="none" xmlns="http://www.w3.org/2000/svg"><g opacity=".8" fill-rule="evenodd" clip-rule="evenodd" fill="#fff"><path d="M2.664 10.937c0-.428.347-.775.775-.775h4.375a.775.775 0 0 1 0 1.55h-3.6v4.85a.775.775 0 0 1-1.55 0v-5.625Z"/><path d="M1.414 16.562c0-.428.347-.775.775-.775h15.625a.775.775 0 0 1 0 1.55H2.19a.775.775 0 0 1-.775-.775Z"/><path d="M7.04 7.187c0-.428.346-.775.774-.775h4.375a.775.775 0 0 1 0 1.55h-3.6v8.6a.775.775 0 0 1-1.55 0V7.187Z"/><path d="M11.414 3.437c0-.428.347-.775.775-.775h4.375c.428 0 .775.347.775.775v13.125a.775.775 0 0 1-.775.775H12.19a.775.775 0 0 1-.775-.775V3.437Zm1.55.775v11.575h2.825V4.212h-2.825Z"/></g></svg>