<svg width="20" height="20" fill="none" xmlns="http://www.w3.org/2000/svg"><g opacity=".8" fill-rule="evenodd" clip-rule="evenodd" fill="#fff"><path d="M.836 3.036c0-.384.31-.696.693-.696h11.555c.383 0 .693.312.693.696v10.058c0 .385-.31.697-.693.697H1.529a.695.695 0 0 1-.693-.697V3.036Zm1.387.697v8.665H12.39V3.733H2.223Z"/><path d="M12.39 6.905c0-.385.31-.697.694-.697h3.08c.185 0 .361.074.491.204l2.311 2.321c.13.13.203.308.203.493v3.868c0 .385-.31.697-.693.697h-5.392a.695.695 0 0 1-.694-.697v-6.19Zm1.387.696v4.797h4.005V9.514l-1.904-1.913h-2.1ZM4.996 13.79c-.68 0-1.233.555-1.233 1.238 0 .684.552 1.238 1.233 1.238.68 0 1.232-.554 1.232-1.238 0-.683-.552-1.238-1.232-1.238Zm-2.62 1.238a2.625 2.625 0 0 1 2.62-2.63 2.625 2.625 0 0 1 2.619 2.63 2.625 2.625 0 0 1-2.62 2.63 2.625 2.625 0 0 1-2.619-2.63Z"/><path d="M15.01 13.79c-.681 0-1.233.555-1.233 1.238 0 .684.552 1.238 1.232 1.238.681 0 1.233-.554 1.233-1.238 0-.683-.552-1.238-1.233-1.238Zm-2.62 1.238a2.625 2.625 0 0 1 2.62-2.63 2.625 2.625 0 0 1 2.619 2.63 2.625 2.625 0 0 1-2.62 2.63 2.625 2.625 0 0 1-2.619-2.63Z"/></g></svg>