<svg width="20" height="20" fill="none" xmlns="http://www.w3.org/2000/svg"><g opacity=".8" clip-path="url(#a)" fill="#fff"><path d="M12.762 6.162c.147.115.245.28.275.463a.7.7 0 0 1-.125.512l-4.687 6.25a.688.688 0 0 1-.25.213.724.724 0 0 1-.325.075.75.75 0 0 1-.425-.138.762.762 0 0 1-.188-.212.612.612 0 0 1-.1-.262 1.012 1.012 0 0 1 0-.276.936.936 0 0 1 .125-.25l4.688-6.25a.712.712 0 0 1 .475-.275h.113c.154 0 .304.053.425.15ZM11.798 10.94c.167-.068.346-.103.527-.102a1.376 1.376 0 0 1 .975.4 1.376 1.376 0 1 1-1.95 0c.128-.128.28-.229.448-.298ZM8.613 8.5a1.387 1.387 0 0 0 0-1.95 1.388 1.388 0 0 0-1.95 0 1.379 1.379 0 1 0 1.95 1.95Z"/><path fill-rule="evenodd" clip-rule="evenodd" d="m18.4 10.262.688 1.525c.14.306.21.64.2.975.002.328-.066.652-.2.95-.127.291-.314.551-.55.763a2.5 2.5 0 0 1-.813.488l-1.538.587a.9.9 0 0 0-.55.55l-.587 1.537c-.112.304-.286.581-.513.813a2.352 2.352 0 0 1-.8.55 2.326 2.326 0 0 1-1.887 0l-1.5-.663a.85.85 0 0 0-.775-.012l-1.5.688a2.338 2.338 0 0 1-2.338-.226 2.4 2.4 0 0 1-.875-1.112l-.575-1.538a.9.9 0 0 0-.55-.55L2.187 15a2.276 2.276 0 0 1-1.35-1.25 2.275 2.275 0 0 1-.2-.95 2.225 2.225 0 0 1 .2-.938l.688-1.5c.1-.248.1-.526 0-.775l-.688-1.5a2.5 2.5 0 0 1-.212-.95 2.5 2.5 0 0 1 .187-.95c.12-.302.303-.575.538-.8.234-.223.51-.397.812-.512l1.55-.575a1 1 0 0 0 .55-.55l.575-1.55c.109-.308.289-.587.525-.813a2.35 2.35 0 0 1 .8-.55 2.4 2.4 0 0 1 1.888 0l1.5.688c.249.1.526.1.775 0l1.5-.688a2.5 2.5 0 0 1 .938-.212 2.5 2.5 0 0 1 .95.187 2.425 2.425 0 0 1 1.312 1.35l.588 1.55a1 1 0 0 0 .55.55l1.537.575a2.25 2.25 0 0 1 1.363 1.25 2.224 2.224 0 0 1 0 1.9l-.663 1.5a.8.8 0 0 0-.087.388c-.001.134.029.267.087.387Zm-.688 2.05-.612-1.45a2.238 2.238 0 0 1-.163-.95c.01-.338.09-.67.238-.975l.688-1.5a1.1 1.1 0 0 0 0-.75 1 1 0 0 0-.538-.525l-1.55-.574a2.236 2.236 0 0 1-.85-.538 2.335 2.335 0 0 1-.538-.85L13.8 2.65a.787.787 0 0 0-.2-.325.927.927 0 0 0-.313-.213.876.876 0 0 0-.737 0l-1.5.688a2.4 2.4 0 0 1-1.975 0l-1.5-.688a1.013 1.013 0 0 0-.388-.075.888.888 0 0 0-.362 0 1 1 0 0 0-.525.538l-.575 1.55a2.5 2.5 0 0 1-.525.8c-.239.241-.53.425-.85.537l-1.55.575c-.133.042-.256.11-.363.2a1.25 1.25 0 0 0-.237.338 1.1 1.1 0 0 0 0 .75l.688 1.5a2.4 2.4 0 0 1 0 1.975L2.2 12.3a1.25 1.25 0 0 0-.088.362.963.963 0 0 0 .288.688c.096.085.206.153.325.2l1.55.587a2.288 2.288 0 0 1 1.387 1.388l.575 1.55c.103.238.29.43.525.538.117.04.24.06.363.062.133 0 .264-.025.387-.075l1.5-.688a2.4 2.4 0 0 1 1.976 0l1.5.688a1.1 1.1 0 0 0 .75 0 1 1 0 0 0 .512-.55l.588-1.538c.112-.32.296-.61.537-.85a2.1 2.1 0 0 1 .85-.537l1.463-.563c.119-.046.229-.114.325-.2.088-.09.16-.196.212-.312a.964.964 0 0 0 .075-.375 1.251 1.251 0 0 0-.088-.363Z"/></g><defs><clipPath id="a"><path fill="#fff" d="M0 0h20v20H0z"/></clipPath></defs></svg>