<svg width="20" height="20" fill="none" xmlns="http://www.w3.org/2000/svg"><g opacity=".8" fill="#fff"><path fill-rule="evenodd" clip-rule="evenodd" d="M14.3 1.987A1.764 1.764 0 0 0 12.583.625h-5.16L7.292.63l-.136.015-.134.026A1.764 1.764 0 0 0 5.66 2.388v.215H4.197l-.15.004c-1.34.07-2.43 1.084-2.43 2.361V17.01l.005.14c.08 1.257 1.217 2.225 2.575 2.225H15.81l.15-.004c1.341-.07 2.43-1.084 2.43-2.361V4.968l-.005-.14c-.079-1.257-1.216-2.225-2.575-2.225h-1.462v-.215l-.005-.13-.016-.137-.026-.134Zm.047 1.906v.215c0 .826-.572 1.532-1.363 1.717l-.134.026-.136.016-.13.005H7.422a1.764 1.764 0 0 1-1.717-1.363l-.026-.134-.015-.136-.005-.13v-.216H4.197c-.685 0-1.223.443-1.284.975l-.006.1V17.01c0 .542.498 1.016 1.164 1.07l.126.005H15.81c.685 0 1.223-.443 1.284-.975l.006-.1V4.968c0-.541-.498-1.016-1.164-1.07l-.126-.005h-1.462ZM7.68 1.614h4.645c.447 0 .836.287.977.705l.03.107.019.11.006.11v1.221l-.01.122-.021.112-.037.118a1.033 1.033 0 0 1-.628.606l-.111.032-.117.02-.108.005H7.664l-.122-.01-.112-.02-.118-.037a1.033 1.033 0 0 1-.606-.628l-.032-.112-.02-.116-.006-.109.001-1.22.009-.123.021-.111.037-.118c.109-.285.339-.506.628-.607l.112-.032.116-.019.109-.006Z"/><path d="M5.466 10.596a.86.86 0 1 0 0-1.721.86.86 0 0 0 0 1.72ZM8.047 8.948a.782.782 0 1 0 0 1.565h6.571a.782.782 0 1 0 0-1.565h-6.57ZM7.265 14.152c0-.432.35-.782.782-.782h6.571a.782.782 0 0 1 0 1.564h-6.57a.782.782 0 0 1-.783-.782ZM5.466 15.017a.86.86 0 1 0 0-1.72.86.86 0 0 0 0 1.72Z"/></g></svg>