<svg width="20" height="20" fill="none" xmlns="http://www.w3.org/2000/svg"><path d="M17.078 10.833c.69 0 1.25.56 1.25 1.25v5c0 .69-.56 1.25-1.25 1.25h-5c-.69 0-1.25-.56-1.25-1.25v-5c0-.69.56-1.25 1.25-1.25h5Zm-9.164 0c.69 0 1.25.56 1.25 1.25v5c0 .69-.56 1.25-1.25 1.25h-5c-.69 0-1.25-.56-1.25-1.25v-5c0-.69.56-1.25 1.25-1.25h5Zm8.998 1.416h-4.667v4.667h4.667v-4.667Zm-9.165 0H3.081v4.667h4.666v-4.667Zm.167-10.583c.69 0 1.25.56 1.25 1.25v5c0 .69-.56 1.25-1.25 1.25h-5c-.69 0-1.25-.56-1.25-1.25v-5c0-.69.56-1.25 1.25-1.25h5Zm9.164 0c.69 0 1.25.56 1.25 1.25v5c0 .69-.56 1.25-1.25 1.25h-5c-.69 0-1.25-.56-1.25-1.25v-5c0-.69.56-1.25 1.25-1.25h5Zm-9.33 1.417H3.08v4.666h4.666V3.083Zm9.164 0h-4.667v4.666h4.667V3.083Z" fill="#fff" opacity=".8"/></svg>