<svg width="36" height="36" fill="none" xmlns="http://www.w3.org/2000/svg"><rect width="36" height="36" rx="4" fill="#fff" fill-opacity=".1"/><path fill-rule="evenodd" clip-rule="evenodd" d="M9 9.797c-.577 0-1.2.558-1.2 1.45v13.5c0 .892.623 1.45 1.2 1.45h18c.577 0 1.2-.558 1.2-1.45v-2.9H23a3.85 3.85 0 0 1 0-7.7h5.2v-2.9c0-.892-.623-1.45-1.2-1.45H9Zm20.8 4.35v-2.9c0-1.593-1.168-3.05-2.8-3.05H9c-1.632 0-2.8 1.457-2.8 3.05v13.5c0 1.594 1.168 3.05 2.8 3.05h18c1.632 0 2.8-1.456 2.8-3.05v-2.9h.05v-7.7h-.05Zm-7.8 3.8c0-.469.38-.85.85-.85h1.3a.85.85 0 1 1 0 1.7h-1.3a.85.85 0 0 1-.85-.85Zm-1.15.05a2.15 2.15 0 0 1 2.15-2.15h5.15v4.3H23a2.15 2.15 0 0 1-2.15-2.15Z" fill="#fff"/></svg>