<svg xmlns="http://www.w3.org/2000/svg" width="14" height="14" fill="none"><path fill="#4D4D4D" fill-rule="evenodd" d="M7.78 10.18a.778.778 0 1 1-1.555 0 .778.778 0 0 1 1.556 0ZM6.13 3.407a2.281 2.281 0 1 1 1.34 4.34v.1a.467.467 0 0 1-.934 0v-.518a.467.467 0 0 1 .467-.467 1.348 1.348 0 1 0-1.348-1.348.467.467 0 1 1-.933 0A2.281 2.281 0 0 1 6.13 3.407Z" clip-rule="evenodd"/><path fill="#4D4D4D" fill-rule="evenodd" d="M7.003 1.633a5.367 5.367 0 1 0 0 10.733 5.367 5.367 0 0 0 0-10.733Zm-6.3 5.366a6.3 6.3 0 1 1 12.6 0 6.3 6.3 0 0 1-12.6 0Z" clip-rule="evenodd"/></svg>