<svg xmlns="http://www.w3.org/2000/svg" width="16" height="16" fill="none"><g fill="#fff" fill-rule="evenodd" clip-path="url(#a)" clip-rule="evenodd"><path d="M8.886 11.636a.889.889 0 1 1-1.778 0 .889.889 0 0 1 1.778 0ZM7 3.895a2.607 2.607 0 1 1 1.53 4.96v.115a.533.533 0 1 1-1.066 0v-.593a.533.533 0 0 1 .533-.533 1.54 1.54 0 1 0-1.54-1.54.533.533 0 0 1-1.067 0A2.607 2.607 0 0 1 7 3.895Z"/><path d="M7.997 1.867a6.133 6.133 0 1 0 0 12.267 6.133 6.133 0 0 0 0-12.267Zm-7.2 6.134a7.2 7.2 0 1 1 14.4 0 7.2 7.2 0 0 1-14.4 0Z"/></g><defs><clipPath id="a"><path fill="#fff" d="M0 0h16v16H0z"/></clipPath></defs></svg>